<svg width="100" height="22" viewBox="0 0 100 22" fill="none" xmlns="http://www.w3.org/2000/svg">
<path d="M99.9998 9.98343V8.22477H97.8159V5.49072L97.7424 5.51336L95.6912 6.14098L95.6507 6.15326V8.22487H92.4131V7.0708C92.4131 6.53344 92.5332 6.12221 92.77 5.84797C93.0052 5.57701 93.3415 5.43926 93.7706 5.43926C94.079 5.43926 94.3983 5.5119 94.7196 5.65517L94.8002 5.69116V3.83905L94.7623 3.82512C94.4625 3.71735 94.0548 3.66309 93.5493 3.66309C92.9123 3.66309 92.3336 3.80171 91.8288 4.07644C91.3237 4.35156 90.9264 4.7443 90.6481 5.24366C90.3708 5.74243 90.23 6.31849 90.23 6.95598V8.22477H88.7094V9.98343H90.23V17.3923H92.4131V9.98343H95.6507V14.6917C95.6507 16.6307 96.5653 17.6134 98.3692 17.6134C98.6656 17.6134 98.9775 17.5787 99.2961 17.5107C99.6203 17.4408 99.8412 17.3711 99.9712 17.2966L99.9999 17.2795V15.5046L99.9111 15.5634C99.7926 15.6423 99.6451 15.7068 99.4722 15.7548C99.2984 15.8036 99.1533 15.8281 99.0409 15.8281C98.6184 15.8281 98.3057 15.7143 98.1118 15.4895C97.9156 15.2628 97.816 14.8663 97.816 14.3116V9.98343H99.9998ZM83.8343 15.8284C83.0419 15.8284 82.4172 15.5657 81.977 15.0481C81.534 14.528 81.3096 13.7864 81.3096 12.8442C81.3096 11.8721 81.534 11.1113 81.9772 10.5819C82.4177 10.0561 83.0364 9.78918 83.8165 9.78918C84.5734 9.78918 85.176 10.0441 85.6076 10.5472C86.0414 11.0529 86.2616 11.8077 86.2616 12.7911C86.2616 13.7866 86.0546 14.5513 85.6463 15.0628C85.2409 15.5705 84.6313 15.8284 83.8343 15.8284V15.8284ZM83.9313 8.00392C82.4196 8.00392 81.2189 8.44687 80.3628 9.3205C79.5073 10.1942 79.0735 11.4033 79.0735 12.9145C79.0735 14.3499 79.497 15.5044 80.3322 16.3456C81.1674 17.187 82.304 17.6132 83.7103 17.6132C85.1756 17.6132 86.3524 17.164 87.2081 16.2783C88.0638 15.3936 88.4972 14.1959 88.4972 12.72C88.4972 11.2622 88.0904 10.099 87.2878 9.26352C86.4848 8.42762 85.3554 8.00392 83.9313 8.00392V8.00392ZM75.5538 8.00392C74.5255 8.00392 73.6749 8.26695 73.0252 8.78555C72.3714 9.30724 72.0398 9.99146 72.0398 10.8194C72.0398 11.2498 72.1114 11.6321 72.2522 11.9564C72.394 12.2817 72.6133 12.5681 72.9046 12.8085C73.1938 13.047 73.6401 13.2967 74.2315 13.5509C74.7288 13.7555 75.0996 13.9285 75.3351 14.0649C75.5653 14.1986 75.7287 14.333 75.821 14.4639C75.9107 14.5919 75.9561 14.7672 75.9561 14.9835C75.9561 15.5994 75.4949 15.8991 74.5458 15.8991C74.1938 15.8991 73.7923 15.8256 73.3524 15.6807C72.9157 15.538 72.5035 15.329 72.1303 15.061L72.0396 14.996V17.0978L72.0729 17.1133C72.3818 17.2558 72.7712 17.3761 73.2302 17.4707C73.6884 17.5654 74.1046 17.6136 74.4662 17.6136C75.5821 17.6136 76.4806 17.3493 77.1363 16.8276C77.7962 16.3023 78.1306 15.602 78.1306 14.7454C78.1306 14.1274 77.9505 13.5975 77.5957 13.1701C77.2433 12.7462 76.6316 12.357 75.7785 12.013C75.0989 11.7403 74.6635 11.5138 74.4838 11.34C74.3107 11.172 74.2227 10.9345 74.2227 10.6338C74.2227 10.3672 74.3313 10.1536 74.5541 9.98062C74.7786 9.80679 75.0911 9.71837 75.4831 9.71837C75.8468 9.71837 76.219 9.77583 76.5891 9.88843C76.9589 10.001 77.2837 10.1518 77.5549 10.3363L77.6441 10.3973V8.40354L77.6098 8.38883C77.3597 8.28155 77.0298 8.18975 76.6291 8.11526C76.2303 8.04126 75.8685 8.00392 75.5538 8.00392V8.00392ZM66.3488 15.8284C65.5566 15.8284 64.9317 15.5657 64.4915 15.0481C64.0485 14.528 63.8244 13.7866 63.8244 12.8442C63.8244 11.8721 64.0488 11.1113 64.492 10.5819C64.9322 10.0561 65.5508 9.78918 66.3313 9.78918C67.0879 9.78918 67.6905 10.0441 68.1222 10.5472C68.5561 11.0529 68.7761 11.8077 68.7761 12.7911C68.7761 13.7866 68.569 14.5513 68.1608 15.0628C67.7554 15.5705 67.1461 15.8284 66.3488 15.8284V15.8284ZM66.4461 8.00392C64.934 8.00392 63.7332 8.44687 62.8776 9.3205C62.0221 10.1942 61.588 11.4033 61.588 12.9145C61.588 14.3505 62.0117 15.5044 62.8469 16.3456C63.6822 17.187 64.8187 17.6132 66.2249 17.6132C67.6901 17.6132 68.8672 17.164 69.7229 16.2783C70.5783 15.3936 71.012 14.1959 71.012 12.72C71.012 11.2622 70.6051 10.099 69.8023 9.26352C68.9991 8.42762 67.8698 8.00392 66.4461 8.00392V8.00392ZM58.2743 9.8124V8.22477H56.1178V17.3921H58.2743V12.7027C58.2743 11.9053 58.4551 11.2502 58.8118 10.7554C59.164 10.2665 59.6334 10.0187 60.2064 10.0187C60.4007 10.0187 60.6187 10.0508 60.8549 10.1141C61.0886 10.1771 61.2579 10.2455 61.3577 10.3175L61.4483 10.3831V8.2091L61.4134 8.1941C61.2126 8.10878 60.9285 8.06573 60.569 8.06573C60.0271 8.06573 59.5422 8.23986 59.1268 8.58269C58.7622 8.88402 58.4987 9.29718 58.2972 9.8124H58.2743ZM52.256 8.00392C51.2667 8.00392 50.3843 8.21606 49.6337 8.63425C48.8816 9.05341 48.3 9.65182 47.9042 10.4127C47.5102 11.1718 47.3102 12.0585 47.3102 13.0473C47.3102 13.9135 47.5041 14.7084 47.8875 15.409C48.271 16.1107 48.8139 16.6597 49.5011 17.0404C50.1874 17.4207 50.9805 17.6135 51.8587 17.6135C52.8835 17.6135 53.7584 17.4086 54.46 17.0045L54.4883 16.9883V15.0126L54.3977 15.0788C54.0799 15.3103 53.7248 15.4951 53.3427 15.6282C52.9615 15.7612 52.6141 15.8284 52.3093 15.8284C51.4632 15.8284 50.7839 15.5636 50.2909 15.0417C49.7967 14.519 49.5462 13.7851 49.5462 12.8615C49.5462 11.9322 49.8075 11.1794 50.3224 10.6239C50.8358 10.0701 51.5163 9.78918 52.3449 9.78918C53.0537 9.78918 53.7444 10.0292 54.3979 10.5032L54.4883 10.5689V8.48721L54.4591 8.47077C54.2132 8.33311 53.8778 8.21945 53.4615 8.13326C53.0469 8.04726 52.6413 8.00392 52.256 8.00392V8.00392ZM45.825 8.22487H43.6685V17.3921H45.825V8.22487V8.22487ZM44.7688 4.31954C44.4139 4.31954 44.1043 4.44036 43.85 4.67978C43.5946 4.91988 43.4651 5.22218 43.4651 5.57894C43.4651 5.93009 43.5931 6.22688 43.8461 6.46059C44.0974 6.69363 44.4079 6.81175 44.7689 6.81175C45.1298 6.81175 45.4415 6.69363 45.6958 6.46098C45.9518 6.22688 46.0816 5.93019 46.0816 5.57894C46.0816 5.23466 45.9553 4.93545 45.7064 4.68945C45.4577 4.44394 45.1421 4.31954 44.7688 4.31954ZM39.3884 7.54849V17.3921H41.5891V4.60017H38.5432L34.6717 14.1017L30.9146 4.60017H27.7446V17.3921H29.8127V7.54752H29.8837L33.8512 17.3921H35.4119L39.3174 7.54849H39.3884V7.54849Z" fill="#706D6E"/>
<path d="M10.1445 10.4702H0V0.325684H10.1445V10.4702Z" fill="#F1511B"/>
<path d="M21.3452 10.4702H11.2009V0.325684H21.3452V10.4702Z" fill="#80CC28"/>
<path d="M10.1442 21.6746H0V11.5303H10.1442V21.6746Z" fill="#00ADEF"/>
<path d="M21.3452 21.6746H11.2009V11.5303H21.3452V21.6746Z" fill="#FBBC09"/>
</svg>
