<svg width="100" height="26" viewBox="0 0 100 26" fill="none" xmlns="http://www.w3.org/2000/svg">
<path fill-rule="evenodd" clip-rule="evenodd" d="M31.9919 20.2841L33.2399 17.3841C34.5879 18.3921 36.3839 18.9161 38.1559 18.9161C39.4639 18.9161 40.2919 18.4121 40.2919 17.6481C40.2719 15.5121 32.4559 17.1841 32.3959 11.8281C32.3759 9.10813 34.7919 7.01213 38.2159 7.01213C40.2519 7.01213 42.2839 7.51613 43.7359 8.66413L42.5679 11.6241C41.2399 10.7761 39.5879 10.1721 38.0159 10.1721C36.9479 10.1721 36.2439 10.6761 36.2439 11.3201C36.2639 13.4161 44.1399 12.2681 44.2199 17.3841C44.2199 20.1641 41.8639 22.1201 38.4799 22.1201C35.9999 22.1161 33.7239 21.5321 31.9919 20.2841V20.2841ZM79.9159 16.3361C79.2919 17.4241 78.1239 18.1681 76.7719 18.1681C74.7759 18.1681 73.1679 16.5561 73.1679 14.5641C73.1679 12.5721 74.7799 10.9601 76.7719 10.9601C78.1199 10.9601 79.2919 11.7041 79.9159 12.7921L83.3599 10.8801C82.0719 8.58413 79.5919 7.01213 76.7719 7.01213C72.5999 7.01213 69.2159 10.3961 69.2159 14.5681C69.2159 18.7401 72.5999 22.1241 76.7719 22.1241C79.6119 22.1241 82.0719 20.5721 83.3599 18.2561L79.9159 16.3361ZM45.9519 0.744141H50.2639V21.8361H45.9519V0.744141ZM85.0519 0.744141V21.8361H89.3639V15.5081L94.4799 21.8361H99.9999L93.4919 14.3201L99.5159 7.30813H94.2359L89.3599 13.1281V0.744141H85.0519Z" fill="black"/>
<path d="M63.0759 16.3763C62.4519 17.4043 61.1639 18.1683 59.7119 18.1683C57.7159 18.1683 56.1079 16.5563 56.1079 14.5643C56.1079 12.5723 57.7199 10.9603 59.7119 10.9603C61.1639 10.9603 62.4519 11.7643 63.0759 12.8123V16.3763ZM63.0759 7.3123V9.0243C62.3719 7.8363 60.6199 7.0083 58.7839 7.0083C54.9959 7.0083 52.0159 10.3523 52.0159 14.5443C52.0159 18.7363 54.9959 22.1203 58.7839 22.1203C60.6159 22.1203 62.3679 21.2963 63.0759 20.1043V21.8163H67.3879V7.3123H63.0759Z" fill="black"/>
<path fill-rule="evenodd" clip-rule="evenodd" d="M5.34002 16.3563C5.34002 17.8283 4.15202 19.0163 2.68002 19.0163C1.20802 19.0163 0.0200195 17.8243 0.0200195 16.3563C0.0200195 14.8883 1.20802 13.6963 2.68002 13.6963H5.34002V16.3563ZM6.66802 16.3563C6.66802 14.8843 7.85602 13.6963 9.32802 13.6963C10.8 13.6963 11.988 14.8843 11.988 16.3563V23.0043C11.988 24.4763 10.8 25.6643 9.32802 25.6643C7.85602 25.6643 6.66802 24.4763 6.66802 23.0043V16.3563Z" fill="#E01E5A"/>
<path fill-rule="evenodd" clip-rule="evenodd" d="M9.328 5.68037C7.856 5.68037 6.668 4.49236 6.668 3.02036C6.668 1.54835 7.856 0.360352 9.328 0.360352C10.8 0.360352 11.988 1.54835 11.988 3.02036V5.68037H9.328ZM9.328 7.02837C10.8 7.02837 11.988 8.21637 11.988 9.68838C11.988 11.1604 10.8 12.3484 9.328 12.3484H2.66C1.188 12.3484 0 11.1564 0 9.68838C0 8.22037 1.188 7.02837 2.66 7.02837H9.328Z" fill="#36C5F0"/>
<path fill-rule="evenodd" clip-rule="evenodd" d="M19.9839 9.68838C19.9839 8.21637 21.1719 7.02837 22.6439 7.02837C24.1159 7.02837 25.3039 8.21637 25.3039 9.68838C25.3039 11.1604 24.1159 12.3484 22.6439 12.3484H19.9839V9.68838ZM18.6559 9.68838C18.6559 11.1604 17.4679 12.3484 15.9959 12.3484C14.5239 12.3484 13.3359 11.1604 13.3359 9.68838V3.02036C13.3359 1.54835 14.5239 0.360352 15.9959 0.360352C17.4679 0.360352 18.6559 1.54835 18.6559 3.02036V9.68838Z" fill="#2EB67D"/>
<path fill-rule="evenodd" clip-rule="evenodd" d="M15.9959 20.3443C17.4679 20.3443 18.6559 21.5323 18.6559 23.0043C18.6559 24.4763 17.4679 25.6643 15.9959 25.6643C14.5239 25.6643 13.3359 24.4763 13.3359 23.0043V20.3443H15.9959ZM15.9959 19.0163C14.5239 19.0163 13.3359 17.8283 13.3359 16.3563C13.3359 14.8843 14.5239 13.6963 15.9959 13.6963H22.6639C24.1359 13.6963 25.3239 14.8843 25.3239 16.3563C25.3239 17.8283 24.1359 19.0163 22.6639 19.0163H15.9959Z" fill="#ECB22E"/>
</svg>
