<svg width="100" height="24" viewBox="0 0 100 24" fill="none" xmlns="http://www.w3.org/2000/svg">
<path fill-rule="evenodd" clip-rule="evenodd" d="M28.4069 1.5026C29.7818 1.87297 30.8625 2.95354 31.2278 4.32347C31.8925 6.80949 31.8925 11.9998 31.8925 11.9998C31.8925 11.9998 31.8925 17.1901 31.2278 19.6761C30.8574 21.051 29.7769 22.1317 28.4069 22.497C25.9209 23.1617 15.9463 23.1617 15.9463 23.1617C15.9463 23.1617 5.97672 23.1617 3.48558 22.497C2.11067 22.1266 1.02997 21.046 0.664706 19.6761C0 17.1901 0 11.9997 0 11.9997C0 11.9997 0 6.80949 0.664706 4.32347C1.03508 2.94856 2.11578 1.86786 3.48558 1.5026C5.97672 0.837891 15.9463 0.837891 15.9463 0.837891C15.9463 0.837891 25.9209 0.837891 28.4069 1.5026ZM21.0452 11.9998L12.7601 16.7842V7.21545L21.0452 11.9998Z" fill="#FF0000"/>
<path fill-rule="evenodd" clip-rule="evenodd" d="M46.2913 21.1466C45.6621 20.7205 45.2106 20.0609 44.9468 19.163C44.6829 18.2649 44.5459 17.0726 44.5459 15.5809V13.5515C44.5459 12.0447 44.6981 10.8373 45.0025 9.92384C45.307 9.01069 45.7839 8.34612 46.4282 7.92999C47.0726 7.51399 47.9199 7.30095 48.9701 7.30095C50.0051 7.30095 50.8322 7.51399 51.4561 7.94022C52.0801 8.36631 52.5368 9.03101 52.826 9.93407C53.1152 10.8373 53.2573 12.0447 53.2573 13.5464V15.5759C53.2573 17.0675 53.1152 18.2649 52.8361 19.168C52.5571 20.071 52.1006 20.7357 51.4663 21.1517C50.8371 21.5677 49.9797 21.781 48.899 21.781C47.793 21.7859 46.9204 21.5728 46.2913 21.1466V21.1466ZM49.8275 18.9549C50 18.4983 50.0914 17.7524 50.0914 16.7226V12.3644C50.0914 11.3597 50.0051 10.6292 49.8275 10.1625C49.6551 9.7007 49.3455 9.46733 48.9041 9.46733C48.478 9.46733 48.1786 9.7007 48.0011 10.1625C47.8285 10.6241 47.7373 11.3597 47.7373 12.3644V16.7226C47.7373 17.7575 47.8184 18.5034 47.9858 18.9549C48.1533 19.4115 48.4577 19.6398 48.8991 19.6398C49.3455 19.6398 49.65 19.4115 49.8275 18.9549V18.9549ZM94.7286 15.6164V16.3218C94.7286 17.2197 94.754 17.8894 94.8098 18.3409C94.8605 18.7875 94.9722 19.1172 95.1396 19.3203C95.307 19.5231 95.5657 19.6297 95.9157 19.6297C96.3877 19.6297 96.7123 19.4471 96.8849 19.0817C97.0574 18.7164 97.1536 18.1076 97.169 17.2553L99.8832 17.4126C99.8986 17.5343 99.9036 17.7017 99.9036 17.9147C99.9036 19.2086 99.5484 20.1725 98.8432 20.8118C98.138 21.451 97.1385 21.7707 95.8448 21.7707C94.2922 21.7707 93.2066 21.2836 92.5825 20.3095C91.9584 19.3354 91.649 17.8336 91.649 15.7941V13.3537C91.649 11.2533 91.9736 9.726 92.6179 8.75713C93.2623 7.79312 94.3683 7.31104 95.9362 7.31104C97.0167 7.31104 97.8438 7.50901 98.4221 7.90469C99.0005 8.30036 99.4064 8.9142 99.6449 9.75144C99.8783 10.5885 100 11.7454 100 13.2167V15.6115H94.7286V15.6164ZM95.1294 9.73112C94.972 9.92909 94.8656 10.2537 94.8097 10.7002C94.7539 11.1467 94.7286 11.8317 94.7286 12.7397V13.7444H97.032V12.7397C97.032 11.8417 97.0015 11.1619 96.9406 10.7002C96.8797 10.2385 96.7682 9.90876 96.6108 9.72102C96.4535 9.53328 96.2049 9.43692 95.8701 9.43692C95.5353 9.4318 95.2867 9.53328 95.1294 9.73112ZM38.6301 15.3527L35.0483 2.42015H38.1735L39.4267 8.28017C39.7464 9.72613 39.9797 10.9539 40.132 11.9737H40.2232C40.3298 11.243 40.5632 10.0203 40.9286 8.30036L42.2273 2.41504H45.3526L41.7301 15.3527V21.5576H38.6301V15.3527ZM63.4196 7.57496V21.5525H60.9589L60.6849 19.8428H60.6189C59.9492 21.1365 58.9447 21.7809 57.6103 21.7809C56.682 21.7809 55.9969 21.4765 55.5556 20.8676C55.1142 20.2588 54.896 19.3101 54.896 18.0163V7.57496H58.0417V17.8387C58.0417 18.4627 58.1076 18.9093 58.2446 19.1731C58.3816 19.4369 58.6099 19.5739 58.9295 19.5739C59.2035 19.5739 59.4673 19.4926 59.7159 19.3253C59.9644 19.1579 60.1522 18.9447 60.274 18.686V7.57483L63.4196 7.57496ZM79.5637 7.57496V21.5525H77.103L76.829 19.8428H76.763C76.0933 21.1365 75.0888 21.7809 73.7544 21.7809C72.826 21.7809 72.141 21.4765 71.6997 20.8676C71.2583 20.2588 71.0401 19.3101 71.0401 18.0163V7.57496H74.1857V17.8387C74.1857 18.4627 74.2517 18.9093 74.3887 19.1731C74.5256 19.4369 74.754 19.5739 75.0736 19.5739C75.3476 19.5739 75.6114 19.4926 75.86 19.3253C76.1085 19.1579 76.2963 18.9447 76.4181 18.686V7.57483L79.5637 7.57496Z" fill="#282828"/>
<path fill-rule="evenodd" clip-rule="evenodd" d="M71.9738 4.95233H68.8485V21.5529H65.7688V4.95233H62.6436V2.42068H71.9687V4.95233H71.9738ZM89.9798 9.81267C89.7871 8.92994 89.4827 8.29067 89.0565 7.89499C88.6304 7.49918 88.0469 7.30135 87.301 7.30135C86.7228 7.30135 86.1849 7.46365 85.6826 7.79352C85.1803 8.11813 84.7947 8.54947 84.5207 9.08215H84.4954V1.71533H81.4614V21.558H84.059L84.3786 20.2339H84.4447C84.6882 20.7057 85.0534 21.0761 85.5405 21.35C86.0275 21.624 86.5655 21.761 87.159 21.761C88.2245 21.761 89.0057 21.2688 89.5081 20.2896C90.0103 19.3105 90.259 17.7783 90.259 15.693V13.4809C90.2641 11.9182 90.1676 10.6955 89.9798 9.8128V9.81267ZM87.093 15.5154C87.093 16.5352 87.0524 17.3317 86.9662 17.9101C86.885 18.4886 86.743 18.8995 86.5451 19.1431C86.3472 19.3865 86.0834 19.5083 85.7485 19.5083C85.4897 19.5083 85.2514 19.4475 85.0281 19.3257C84.81 19.2039 84.6273 19.0213 84.4903 18.7777V10.8377C84.5969 10.4571 84.7795 10.1476 85.0383 9.90418C85.297 9.66059 85.576 9.53879 85.8804 9.53879C86.2001 9.53879 86.4486 9.66557 86.6212 9.91415C86.7937 10.1629 86.9155 10.5889 86.9864 11.1775C87.0525 11.7711 87.0879 12.6133 87.0879 13.7091V15.5154H87.093Z" fill="#282828"/>
</svg>
