<svg width="32" height="32" viewBox="0 0 32 32" fill="none" xmlns="http://www.w3.org/2000/svg">
<path d="M20.3317 23.7851H11.6802V8.24512H20.3318L20.3317 23.7851Z" fill="#FF5F00"/>
<path d="M12.2267 16.0129C12.2267 12.8607 13.7034 10.0526 16.003 8.24297C14.2623 6.87115 12.1094 6.12662 9.89274 6.12989C4.43223 6.12989 0.00585938 10.5546 0.00585938 16.0129C0.00585938 21.4713 4.43223 25.896 9.89274 25.896C12.1095 25.8993 14.2625 25.1548 16.0032 23.7829C13.7038 21.9736 12.2267 19.1654 12.2267 16.0129Z" fill="#EB001B"/>
<path d="M32.0015 16.0129C32.0015 21.4713 27.5752 25.896 22.1146 25.896C19.8977 25.8992 17.7444 25.1547 16.0034 23.7829C18.3036 21.9733 19.7804 19.1654 19.7804 16.0129C19.7804 12.8605 18.3036 10.0526 16.0034 8.24297C17.7444 6.87119 19.8976 6.12668 22.1145 6.12989C27.575 6.12989 32.0014 10.5546 32.0014 16.0129" fill="#F79E1B"/>
</svg>
