<svg width="32" height="32" viewBox="0 0 32 32" fill="none" xmlns="http://www.w3.org/2000/svg">
<path fill-rule="evenodd" clip-rule="evenodd" d="M11.2612 21.1559H13.8723L15.5045 10.8511H12.8931L11.2612 21.1559ZM6.57518 17.9388L9.06452 10.8511H11.8747L7.72046 21.1561H4.99987L2.73132 12.2034C1.25848 11.2946 0 11.0256 0 11.0256L0.000270457 11.0246C0.0267351 11.0303 1.99082 11.4564 3.87524 13.0238C5.66033 14.5081 6.26165 16.3521 6.28042 16.4106L6.28089 16.4131L6.28062 16.4126L6.57518 17.9388ZM32 21.1559H29.6024L29.2966 19.6252H25.9772L25.4329 21.1559H22.7109L26.6052 11.6188C26.6052 11.6188 26.8413 10.8508 27.8106 10.8508H29.9096L32 21.1559ZM28.1011 13.6544L26.7292 17.5107H28.873L28.1011 13.6544ZM23.2877 11.1163L22.9151 13.3292C21.7977 12.6966 19.2547 12.5469 19.2545 13.7121C19.2545 14.1749 19.8298 14.4933 20.5233 14.877C21.5751 15.4588 22.8985 16.191 22.8985 17.8057C22.8985 20.3857 20.2103 21.3337 18.4284 21.3337C16.6471 21.3337 15.4812 20.7518 15.4812 20.7518L15.8693 18.438C16.9384 19.3198 20.1779 19.5704 20.1779 18.172C20.1779 17.5844 19.5402 17.2379 18.8007 16.8361C17.7804 16.2816 16.5663 15.6219 16.5663 14.0784C16.5663 11.2489 19.6435 10.667 20.9392 10.667C22.1379 10.667 23.2877 11.1163 23.2877 11.1163Z" fill="#2566AF"/>
<path d="M6.29275 16.2683L5.41249 11.7495C5.41249 11.7495 5.30605 10.8447 4.17151 10.8447H0.048381L0 11.0149C0 11.0149 1.98174 11.4256 3.88257 12.9644C5.70008 14.4352 6.29275 16.2683 6.29275 16.2683Z" fill="#E6A540"/>
</svg>
